<?xml version="1.0" encoding="utf-8"?>
<!-- Generator: Adobe Illustrator 28.0.0, SVG Export Plug-In . SVG Version: 6.00 Build 0)  -->
<svg version="1.1" id="Слой_1" xmlns="http://www.w3.org/2000/svg" xmlns:xlink="http://www.w3.org/1999/xlink" x="0px" y="0px"
	 viewBox="0 0 1000 999.9787598" enable-background="new 0 0 1000 999.9787598" xml:space="preserve">
<polygon fill="#354650" points="911.7591553,0.0193782 911.7591553,0.204817 823.5397949,88.4499893 823.5397949,0.0193782 
	735.2946167,0.0193782 735.2946167,0.0282599 735.2946167,0.0193782 588.2516479,147.0715179 588.2516479,529.4121094 
	647.0671997,529.4121094 647.0671997,176.4924927 764.7155762,58.8438416 764.7155762,529.4121094 823.5397949,529.4121094 
	823.5397949,176.4924927 941.1709595,58.8438416 941.1709595,529.4121094 999.9951782,529.4121094 999.9951782,0.0193782 "/>
<path fill="#354650" d="M176.4994965,58.8419571v411.7440796H58.8597221V176.4820099L176.4994965,58.8419571z
	 M0.0355267,529.4102173h235.2884369V0.0177634h-88.2454376v0.0086125L147.0699005,0L0,147.0696411l0.0355267,0.0352478V529.4102173
	z"/>
<path fill="#354650" d="M352.9667053,58.8392677h117.6397705v411.7526855H352.9667053V58.8392677z M529.4306641,0.0150719
	H294.151123v529.3927002h235.279541V0.0150719z"/>
<rect x="0.0382182" y="588.2319946" fill="#354650" width="999.9606934" height="58.8244629"/>
<path fill="#354650" d="M352.9634705,882.3386841H58.8597221V764.6989136h294.1037598V882.3386841z M0.0355267,705.8744507
	v294.1043091h58.8241959V941.163147H411.788208V705.8744507H0.0355267z"/>
<path fill="#354650" d="M941.1757812,882.3386841H764.7113037V764.6989136h176.4644775V882.3386841z M529.4226074,764.6989136
	H705.887085v117.6397705H529.4226074V764.6989136z M470.6075439,705.8744507V941.163147h235.288147v58.8156128h58.8156128
	V941.163147H1000V705.8744507H470.6075439z"/>
</svg>
